<?xml version="1.0" encoding="UTF-8"?>
<!DOCTYPE svg PUBLIC "-//W3C//DTD SVG 1.1//EN" "http://www.w3.org/Graphics/SVG/1.1/DTD/svg11.dtd">
<svg xmlns="http://www.w3.org/2000/svg" version="1.1" width="500px" height="500px" style="shape-rendering:geometricPrecision; text-rendering:geometricPrecision; image-rendering:optimizeQuality; fill-rule:evenodd; clip-rule:evenodd" xmlns:xlink="http://www.w3.org/1999/xlink">
<g><path style="opacity:1" fill="#fefdf8" d="M -0.5,-0.5 C 166.167,-0.5 332.833,-0.5 499.5,-0.5C 499.5,166.167 499.5,332.833 499.5,499.5C 332.833,499.5 166.167,499.5 -0.5,499.5C -0.5,332.833 -0.5,166.167 -0.5,-0.5 Z"/></g>
<g><path style="opacity:1" fill="#152923" d="M 228.5,54.5 C 293.754,49.6319 349.088,70.4652 394.5,117C 389.174,117.852 383.84,118.186 378.5,118C 322.214,67.5721 257.881,53.9054 185.5,77C 150.314,90.5026 121.481,112.336 99,142.5C 98.2992,138.029 97.1325,133.696 95.5,129.5C 101.494,119.995 108.827,111.495 117.5,104C 149.457,76.1815 186.457,59.6815 228.5,54.5 Z"/></g>
<g><path style="opacity:1" fill="#152923" d="M 90.5,222.5 C 89.3412,232.992 89.1745,243.659 90,254.5C 90.6077,252.846 91.1077,251.179 91.5,249.5C 99.9017,207.783 115.068,168.783 137,132.5C 144.542,121.957 153.709,113.124 164.5,106C 191.874,92.4641 212.374,99.2975 226,126.5C 228.269,131.64 229.935,136.973 231,142.5C 234.413,210.168 208.58,263.335 153.5,302C 133.109,315.119 111.109,319.286 87.5,314.5C 84.7085,345.448 82.5418,376.448 81,407.5C 80.8481,414.003 77.8481,416.003 72,413.5C 71.2801,382.316 71.7801,351.149 73.5,320C 73.1667,315.833 72.8333,311.667 72.5,307.5C 68.2544,305.424 65.2544,302.257 63.5,298C 63.2606,295.741 64.2606,294.574 66.5,294.5C 69.2037,295.572 71.8704,296.572 74.5,297.5C 76.348,253.51 78.0147,209.51 79.5,165.5C 79.5362,157.128 79.0362,148.794 78,140.5C 77.7104,138.956 77.0437,137.623 76,136.5C 70.4777,142.204 66.4777,148.871 64,156.5C 54.8215,179.19 52.4882,202.524 57,226.5C 57.7411,233.411 60.7411,239.077 66,243.5C 66.4935,245.134 66.6602,246.801 66.5,248.5C 60.6532,249.16 56.4866,246.827 54,241.5C 47.1804,223.722 45.1804,205.389 48,186.5C 50.7144,166.353 57.381,147.686 68,130.5C 73.7476,123.941 79.4143,123.941 85,130.5C 86.7248,133.674 88.0581,137.007 89,140.5C 90.9255,151.576 91.7588,162.743 91.5,174C 90.9484,190.163 90.615,206.33 90.5,222.5 Z"/></g>
<g><path style="opacity:1" fill="#fdfcf7" d="M 182.5,107.5 C 199.77,107.218 211.27,115.218 217,131.5C 222.274,149.284 222.94,167.284 219,185.5C 209.173,232.711 184.34,269.545 144.5,296C 128.002,305.693 110.336,309.027 91.5,306C 90.3705,301.921 90.2039,297.755 91,293.5C 97.6522,248.876 109.986,205.876 128,164.5C 136.664,145.659 148.831,129.493 164.5,116C 170.208,112.31 176.208,109.477 182.5,107.5 Z"/></g>
<g><path style="opacity:1" fill="#162a24" d="M 339.5,112.5 C 342.808,111.974 344.974,113.307 346,116.5C 346.667,120.5 346.667,124.5 346,128.5C 344.89,130.037 343.39,130.703 341.5,130.5C 341.5,131.833 341.5,133.167 341.5,134.5C 358.966,130.786 376.633,128.453 394.5,127.5C 400.275,126.762 405.442,128.095 410,131.5C 411.123,135.055 409.789,137.055 406,137.5C 404.629,136.419 403.129,135.585 401.5,135C 380.239,135.783 359.239,138.616 338.5,143.5C 333.027,203.717 331.194,264.05 333,324.5C 328.366,327.614 325.366,326.281 324,320.5C 322.678,295.186 322.178,269.852 322.5,244.5C 313.724,244.059 305.058,244.559 296.5,246C 289.014,255.123 285.514,265.623 286,277.5C 284.155,281.795 281.488,282.462 278,279.5C 277.117,261.469 277.45,243.469 279,225.5C 279.598,222.692 280.765,220.192 282.5,218C 284.701,217.175 286.534,217.675 288,219.5C 288.39,227.624 288.557,235.624 288.5,243.5C 291.081,240.752 294.081,238.586 297.5,237C 306.202,236.256 314.868,236.422 323.5,237.5C 323.333,220.163 323.5,202.83 324,185.5C 325.456,172.535 326.623,159.535 327.5,146.5C 303.358,150.492 280.358,157.992 258.5,169C 257.62,170.356 257.286,171.856 257.5,173.5C 246.47,174.17 244.804,170.67 252.5,163C 264.236,156.635 276.57,151.635 289.5,148C 302.781,144.129 316.114,140.462 329.5,137C 331.454,130.915 333.288,124.748 335,118.5C 336.332,116.34 337.832,114.34 339.5,112.5 Z"/></g>
<g><path style="opacity:1" fill="#162a24" d="M 414.5,143.5 C 429.236,164.647 438.736,187.98 443,213.5C 441.623,211.246 440.123,209.08 438.5,207C 435.219,204.445 431.719,202.278 428,200.5C 422.57,181.142 414.07,163.308 402.5,147C 405.5,146.667 408.5,146.333 411.5,146C 412.942,145.623 413.942,144.79 414.5,143.5 Z"/></g>
<g><path style="opacity:1" fill="#253731" d="M 68.5,172.5 C 70.3696,188.842 69.5363,205.175 66,221.5C 64.4952,211.212 64.1618,200.878 65,190.5C 66.7055,184.6 67.8721,178.6 68.5,172.5 Z"/></g>
<g><path style="opacity:1" fill="#182b25" d="M 417.5,210.5 C 424.663,209.608 430.497,211.941 435,217.5C 437.812,222.231 436.645,224.398 431.5,224C 426.631,219.018 421.298,218.351 415.5,222C 406.062,232.036 400.895,243.869 400,257.5C 405.252,249.332 410.252,240.999 415,232.5C 416.886,229.359 419.22,226.692 422,224.5C 424.459,224.89 426.126,226.224 427,228.5C 427.031,236.306 428.031,243.973 430,251.5C 434.003,258.633 439.836,260.467 447.5,257C 454.833,252.333 460.833,246.333 465.5,239C 470.231,236.188 472.398,237.355 472,242.5C 465.694,253.802 456.528,261.968 444.5,267C 436.578,268.292 430.078,265.792 425,259.5C 421.892,254.611 419.892,249.278 419,243.5C 414.163,250.504 409.829,257.837 406,265.5C 400.57,272.145 395.236,272.145 390,265.5C 389.03,258.505 389.53,251.672 391.5,245C 383.833,244.333 376.167,244.333 368.5,245C 360.034,254.116 356.201,264.95 357,277.5C 355.155,281.795 352.488,282.462 349,279.5C 348.333,263.167 348.333,246.833 349,230.5C 349.257,226.623 350.257,222.957 352,219.5C 354.333,216.833 356.667,216.833 359,219.5C 358.669,227.484 358.669,235.484 359,243.5C 361.892,240.943 365.059,238.776 368.5,237C 376.703,236.212 384.87,236.379 393,237.5C 396.973,231.518 400.973,225.518 405,219.5C 408.811,215.832 412.978,212.832 417.5,210.5 Z"/></g>
<g><path style="opacity:1" fill="#162923" d="M 254.5,215.5 C 259.993,214.178 262.493,216.178 262,221.5C 260.214,222.777 259.048,224.444 258.5,226.5C 261.162,230.681 263.662,235.014 266,239.5C 268.288,253.344 265.955,266.344 259,278.5C 256.079,282.092 252.579,284.925 248.5,287C 239.127,287.641 233.96,283.141 233,273.5C 233.201,258.03 236.867,243.364 244,229.5C 246.563,224.108 250.063,219.441 254.5,215.5 Z"/></g>
<g><path style="opacity:1" fill="#172a24" d="M 444.5,227.5 C 445.268,228.263 445.768,229.263 446,230.5C 446.667,235.833 446.667,241.167 446,246.5C 443.832,248.455 441.498,249.121 439,248.5C 437.412,243.536 437.245,238.536 438.5,233.5C 441.545,232.456 443.545,230.456 444.5,227.5 Z"/></g>
<g><path style="opacity:1" fill="#f4f4ef" d="M 252.5,235.5 C 254.888,236.219 256.388,237.885 257,240.5C 258.204,252.288 255.87,263.288 250,273.5C 246.974,277.618 244.974,277.285 244,272.5C 243.333,269.833 243.333,267.167 244,264.5C 246.336,254.661 249.17,244.994 252.5,235.5 Z"/></g>
<g><path style="opacity:1" fill="#79847e" d="M 90.5,222.5 C 90.1734,231.682 90.5067,240.682 91.5,249.5C 91.1077,251.179 90.6077,252.846 90,254.5C 89.1745,243.659 89.3412,232.992 90.5,222.5 Z"/></g>
<g><path style="opacity:1" fill="#172a24" d="M 52.5,255.5 C 56.1888,257.674 60.1888,258.674 64.5,258.5C 65.0008,267.17 65.1675,275.837 65,284.5C 61.43,285.119 58.43,286.786 56,289.5C 53.1857,278.358 52.0191,267.025 52.5,255.5 Z"/></g>
<g><path style="opacity:1" fill="#152923" d="M 433.5,276.5 C 437.5,276.5 441.5,276.5 445.5,276.5C 436.108,339.158 404.775,387.325 351.5,421C 281.226,459.857 211.559,458.857 142.5,418C 123.83,406.002 107.664,391.168 94,373.5C 93.3333,366.833 93.3333,360.167 94,353.5C 134.247,410.375 189.414,438.208 259.5,437C 334.154,429.974 387.654,392.808 420,325.5C 426.525,309.736 431.025,293.403 433.5,276.5 Z"/></g>
<g><path style="opacity:1" fill="#263832" d="M 61.5,312.5 C 63.3442,313.204 63.8442,314.537 63,316.5C 62.2086,315.255 61.7086,313.922 61.5,312.5 Z"/></g>
</svg>
